<svg width="40" height="39" viewBox="0 0 40 39" fill="none" xmlns="http://www.w3.org/2000/svg">
<path d="M1.33781 6.99912L27.8374 10.6245C27.9531 10.6389 28.0594 10.6958 28.1356 10.7842C28.2118 10.8726 28.2525 10.9863 28.2499 11.1031V37.6917C28.2499 37.8187 28.1996 37.9404 28.11 38.0301C28.0204 38.1199 27.8989 38.1703 27.7722 38.1703H27.671L1.17138 34.5449C1.05566 34.5305 0.949381 34.4736 0.873166 34.3852C0.79695 34.2968 0.756228 34.1831 0.758905 34.0663V7.46317C0.758905 7.33625 0.809215 7.21453 0.898783 7.12478C0.98835 7.03504 1.10982 6.98462 1.23649 6.98462H1.33781V6.99912ZM27.3019 11.5164L1.70687 8.00698V33.6385L27.3019 37.1552V11.5164Z" fill="#7D806A"/>
<path d="M38.2288 5.31686L28.2498 11.4075V36.8578L38.2288 30.8034V5.31686ZM27.7722 11.1175L27.5262 10.7115L38.3808 4.10598C38.4649 4.0447 38.5662 4.01171 38.6702 4.01172C38.7326 4.01172 38.7943 4.02414 38.8519 4.04828C38.9094 4.07242 38.9616 4.10778 39.0054 4.15232C39.0491 4.19685 39.0837 4.24967 39.1069 4.30769C39.1301 4.36571 39.1415 4.42777 39.1406 4.49027V31.0789C39.1419 31.1613 39.1219 31.2427 39.0826 31.3151C39.0433 31.3875 38.986 31.4485 38.9162 31.4922L38.6702 31.0862L38.909 31.4922L28.0544 38.0977C27.9703 38.159 27.869 38.192 27.765 38.192C27.6396 38.1901 27.52 38.1388 27.4319 38.0493C27.3439 37.9597 27.2946 37.8391 27.2946 37.7134V11.1102C27.2926 11.0277 27.3123 10.9461 27.3517 10.8735C27.391 10.801 27.4487 10.7401 27.519 10.697L27.7722 11.1175Z" fill="#7D806A"/>
<path d="M2.94432 7.21651L27.671 10.6099L37.3171 4.75849L15.3547 1.69141L2.94432 7.21651ZM27.7072 11.567L1.20762 7.94159C1.10945 7.92654 1.01856 7.88073 0.947962 7.81074C0.877365 7.74075 0.830687 7.65016 0.814621 7.55196C0.798554 7.45376 0.813925 7.35298 0.858523 7.26407C0.903121 7.17516 0.974651 7.10267 1.06288 7.05699L15.0725 0.821313C15.1621 0.769271 15.2666 0.748846 15.3692 0.763305L38.7572 4.02616C38.8336 4.03277 38.9074 4.05719 38.9727 4.09748C39.0381 4.13777 39.0931 4.1928 39.1334 4.25819C39.1662 4.31137 39.1881 4.37056 39.1979 4.43232C39.2077 4.49407 39.205 4.55715 39.1902 4.61788C39.1754 4.67862 39.1487 4.73579 39.1116 4.78607C39.0745 4.83635 39.0278 4.87874 38.9742 4.91076L38.7282 4.50472L38.967 4.91076L28.1124 11.5162C28.0621 11.5537 28.0048 11.5807 27.9439 11.5956C27.883 11.6106 27.8198 11.6131 27.7579 11.6032L27.7072 11.567Z" fill="#7D806A"/>
<path d="M6.98227 7.78209L15.1159 8.89871C15.1773 8.90675 15.2364 8.92683 15.29 8.95779C15.3435 8.98876 15.3905 9.03 15.4281 9.07916C15.4658 9.12833 15.4934 9.18445 15.5093 9.24431C15.5253 9.30417 15.5293 9.36659 15.5212 9.42802L15.0002 22.0009H14.5298H15.0074C15 22.1272 14.9436 22.2456 14.8503 22.3309C14.7571 22.4162 14.6343 22.4617 14.5081 22.4577C14.4027 22.4525 14.3015 22.4145 14.2186 22.3489L10.3038 19.4486L6.43954 21.8849C6.36362 21.9349 6.27487 21.9619 6.18399 21.9625C6.09311 21.963 6.00402 21.9372 5.92747 21.8881C5.85092 21.839 5.7902 21.7688 5.75265 21.6859C5.71511 21.6029 5.70235 21.5109 5.71591 21.4208L6.43954 8.21714C6.44702 8.09146 6.50363 7.9738 6.59709 7.88965C6.69055 7.8055 6.81334 7.76164 6.93886 7.76759L6.98227 7.78209ZM14.5588 9.78331L7.3224 8.78995L6.70729 20.5942L10.036 18.4988C10.1195 18.4391 10.2194 18.407 10.3218 18.407C10.4243 18.407 10.5243 18.4391 10.6077 18.4988L14.0956 21.0728L14.5588 9.78331Z" fill="#7D806A"/>
<path d="M8.35714 8.12294L14.9567 8.94953L25.5145 3.14889L18.7702 2.22804L8.35714 8.15919V8.12294ZM14.9929 9.91389L6.85197 8.89152C6.77675 8.88424 6.70444 8.85863 6.64138 8.81692C6.57831 8.77522 6.5264 8.71868 6.49015 8.65224C6.45909 8.59849 6.43895 8.53912 6.43088 8.47753C6.4228 8.41595 6.42693 8.35338 6.44307 8.29341C6.45921 8.23343 6.48702 8.17725 6.52491 8.12808C6.56279 8.07892 6.60999 8.03774 6.66381 8.00692L18.4302 1.30719C18.5275 1.24031 18.6461 1.2119 18.763 1.22743L27.0415 2.35855C27.1224 2.3618 27.2011 2.38628 27.2697 2.42954C27.3382 2.4728 27.3943 2.53333 27.4322 2.60508C27.4627 2.65971 27.482 2.71987 27.489 2.78205C27.4961 2.84423 27.4907 2.9072 27.4731 2.96727C27.4556 3.02734 27.4264 3.08332 27.387 3.13193C27.3477 3.18054 27.2991 3.22082 27.2441 3.2504L15.3258 9.84137C15.2319 9.89651 15.1227 9.91943 15.0146 9.90663L14.9929 9.91389Z" fill="#7D806A"/>
<path d="M27.8374 10.6245L1.33781 6.99912V6.98462H1.23649C1.10982 6.98462 0.98835 7.03504 0.898783 7.12478C0.809215 7.21453 0.758905 7.33625 0.758905 7.46317V34.0663C0.756228 34.1831 0.79695 34.2968 0.873166 34.3852C0.949381 34.4736 1.05566 34.5305 1.17138 34.5449M27.8374 10.6245L27.7722 11.0958M27.8374 10.6245C27.9531 10.6389 28.0594 10.6958 28.1356 10.7842C28.2118 10.8726 28.2525 10.9863 28.2499 11.1031V37.6917C28.2499 37.8187 28.1996 37.9404 28.11 38.0301C28.0204 38.1199 27.8989 38.1703 27.7722 38.1703H27.671L1.17138 34.5449M1.17138 34.5449L1.23649 34.0736M1.06288 7.05699C0.974651 7.10267 0.903121 7.17516 0.858523 7.26407C0.813925 7.35298 0.798554 7.45376 0.814621 7.55196C0.830687 7.65016 0.877365 7.74075 0.947962 7.81074C1.01856 7.88073 1.10945 7.92654 1.20762 7.94159L27.7072 11.567L27.7579 11.6032C27.8198 11.6131 27.883 11.6106 27.9439 11.5956C28.0048 11.5807 28.0621 11.5537 28.1124 11.5162L38.967 4.91076L38.7282 4.50472L38.9742 4.91076C39.0278 4.87874 39.0745 4.83635 39.1116 4.78607C39.1487 4.73579 39.1754 4.67862 39.1902 4.61788C39.205 4.55715 39.2077 4.49407 39.1979 4.43232C39.1881 4.37056 39.1662 4.31137 39.1334 4.25819C39.0931 4.1928 39.0381 4.13777 38.9727 4.09748C38.9074 4.05719 38.8336 4.03277 38.7572 4.02616L15.3692 0.763305C15.2666 0.748846 15.1621 0.769271 15.0725 0.821313L1.06288 7.05699ZM1.06288 7.05699L1.25828 7.49204M15.1159 8.89871L6.98227 7.78209L6.93886 7.76759C6.81334 7.76164 6.69055 7.8055 6.59709 7.88965C6.50363 7.9738 6.44702 8.09146 6.43954 8.21714M15.1159 8.89871L15.0508 9.37001M15.1159 8.89871C15.1773 8.90675 15.2364 8.92683 15.29 8.95779C15.3435 8.98876 15.3905 9.03 15.4281 9.07916C15.4658 9.12833 15.4934 9.18445 15.5093 9.24431C15.5253 9.30417 15.5293 9.36659 15.5212 9.42802L15.0002 22.0009H14.5298H15.0074C15 22.1272 14.9436 22.2456 14.8503 22.3309C14.7571 22.4162 14.6343 22.4617 14.5081 22.4577C14.4027 22.4525 14.3015 22.4145 14.2186 22.3489L10.3038 19.4486L6.43954 21.8849M6.43954 21.8849L6.18629 21.4788M6.43954 21.8849C6.36362 21.9349 6.27487 21.9619 6.18399 21.9625C6.09311 21.963 6.00402 21.9372 5.92747 21.8881C5.85092 21.839 5.7902 21.7688 5.75265 21.6859C5.71511 21.6029 5.70235 21.5109 5.71591 21.4208L6.43954 8.21714M6.43954 8.21714H6.91717M6.66381 8.00692C6.60999 8.03774 6.56279 8.07892 6.52491 8.12808C6.48702 8.17725 6.45921 8.23343 6.44307 8.2934C6.42693 8.35338 6.4228 8.41595 6.43088 8.47753C6.43895 8.53912 6.45909 8.59849 6.49015 8.65224C6.5264 8.71868 6.57831 8.77522 6.64138 8.81692C6.70444 8.85863 6.77675 8.88424 6.85197 8.89152L14.9929 9.91389L15.0146 9.90663C15.1227 9.91943 15.2319 9.89651 15.3258 9.84137L27.2441 3.2504M6.66381 8.00692L6.90263 8.42022M6.66381 8.00692L18.4302 1.30719C18.5275 1.24031 18.6461 1.2119 18.763 1.22743L27.0415 2.35855C27.1224 2.3618 27.2011 2.38628 27.2697 2.42954C27.3382 2.4728 27.3943 2.53333 27.4322 2.60508C27.4627 2.65971 27.482 2.71987 27.489 2.78205C27.4961 2.84423 27.4907 2.9072 27.4731 2.96727C27.4556 3.02734 27.4264 3.08332 27.387 3.13193C27.3477 3.18054 27.2991 3.22082 27.2441 3.2504M27.2441 3.2504L27.0197 2.82986M27.3019 11.5164L1.70687 8.00698V33.6385L27.3019 37.1552V11.5164ZM38.2288 5.31686L28.2498 11.4075V36.8578L38.2288 30.8034V5.31686ZM27.7722 11.1175L27.5262 10.7115L38.3808 4.10598C38.4649 4.0447 38.5662 4.01171 38.6702 4.01172C38.7326 4.01172 38.7943 4.02414 38.8519 4.04828C38.9094 4.07242 38.9616 4.10778 39.0054 4.15232C39.0491 4.19685 39.0837 4.24967 39.1069 4.30769C39.1301 4.36571 39.1415 4.42777 39.1406 4.49027V31.0789C39.1419 31.1613 39.1219 31.2427 39.0826 31.3151C39.0433 31.3875 38.986 31.4485 38.9162 31.4922L38.6702 31.0862L38.909 31.4922L28.0544 38.0977C27.9703 38.159 27.869 38.192 27.765 38.192C27.6396 38.1901 27.52 38.1388 27.432 38.0493C27.3439 37.9597 27.2946 37.8391 27.2946 37.7134V11.1102C27.2926 11.0277 27.3123 10.9461 27.3517 10.8735C27.391 10.801 27.4487 10.7401 27.519 10.697L27.7722 11.1175ZM2.94432 7.21651L27.671 10.6099L37.3171 4.75849L15.3547 1.69141L2.94432 7.21651ZM14.5588 9.78331L7.3224 8.78995L6.70729 20.5942L10.036 18.4988C10.1195 18.4391 10.2194 18.407 10.3218 18.407C10.4243 18.407 10.5243 18.4391 10.6077 18.4988L14.0956 21.0728L14.5588 9.78331ZM8.35714 8.12294L14.9567 8.94953L25.5145 3.14889L18.7702 2.22804L8.35714 8.15919V8.12294Z" stroke="#7D806A" stroke-width="1.5"/>
</svg>
