<svg width="42" height="40" viewBox="0 0 42 40" fill="none" xmlns="http://www.w3.org/2000/svg">
<path fill-rule="evenodd" clip-rule="evenodd" d="M21.4758 3.03688C21.1704 2.9201 20.8296 2.9201 20.5242 3.03688L5.23112 8.88385L21 14.9127L36.7689 8.88385L21.4758 3.03688ZM38.9375 10.6927L22.2812 17.0608V36.4665L38.9375 30.0984V10.6927ZM19.7188 36.4665V17.0608L3.0625 10.6927V30.0984L19.7188 36.4665ZM19.5725 0.762772C20.4889 0.412409 21.5111 0.412409 22.4275 0.762772L40.6946 7.74679C41.181 7.93277 41.5 8.38308 41.5 8.88385V30.0984C41.5 31.0999 40.8621 32.0005 39.8892 32.3725L21.4758 39.4124C21.1704 39.5292 20.8296 39.5292 20.5242 39.4124L2.11081 32.3725C1.13794 32.0005 0.5 31.0999 0.5 30.0984V8.88385C0.5 8.38308 0.818968 7.93277 1.30541 7.74679L19.5725 0.762772Z" fill="#7D806A" stroke="#7D806A"/>
</svg>
