<svg width="36" height="36" viewBox="0 0 36 36" fill="none" xmlns="http://www.w3.org/2000/svg">
<path fill-rule="evenodd" clip-rule="evenodd" d="M7.0625 5.96875C7.0625 2.94844 9.51094 0.5 12.5312 0.5C15.5516 0.5 18 2.94844 18 5.96875C18 2.94844 20.4484 0.5 23.4688 0.5C26.4891 0.5 28.9375 2.94844 28.9375 5.96875L28.9375 5.98093C28.9376 6.13375 28.9378 6.57177 28.8548 7.0625H33.3125C34.5206 7.0625 35.5 8.04188 35.5 9.25V13.625C35.5 14.8331 34.5206 15.8125 33.3125 15.8125V32.2188C33.3125 34.0309 31.8434 35.5 30.0312 35.5H5.96875C4.15657 35.5 2.6875 34.0309 2.6875 32.2188L2.6875 15.8125C1.47938 15.8125 0.5 14.8331 0.5 13.625V9.25C0.5 8.04188 1.47938 7.0625 2.6875 7.0625H7.14524C7.06221 6.57177 7.06242 6.13375 7.0625 5.98093C7.0625 5.97664 7.0625 5.97258 7.0625 5.96875ZM9.39873 7.0625H15.8125V5.96875C15.8125 4.15657 14.3434 2.6875 12.5312 2.6875C10.7191 2.6875 9.25 4.15657 9.25 5.96875C9.25 6.15414 9.25426 6.56705 9.34818 6.91143C9.36489 6.97269 9.38221 7.02283 9.39873 7.0625ZM20.1875 7.0625H26.6013C26.6178 7.02283 26.6351 6.97269 26.6518 6.91143C26.7457 6.56705 26.75 6.15414 26.75 5.96875C26.75 4.15657 25.2809 2.6875 23.4688 2.6875C21.6566 2.6875 20.1875 4.15657 20.1875 5.96875V7.0625ZM2.6875 9.25V13.625H15.8125V9.25H2.6875ZM20.1875 9.25V13.625H33.3125V9.25H20.1875ZM31.125 15.8125H20.1875V33.3125H30.0312C30.6353 33.3125 31.125 32.8228 31.125 32.2188V15.8125ZM15.8125 33.3125V15.8125H4.875V32.2188C4.875 32.8228 5.36469 33.3125 5.96875 33.3125H15.8125Z" fill="#7D806A" stroke="#7D806A"/>
</svg>
