<svg width="33" height="44" viewBox="0 0 33 44" fill="none" xmlns="http://www.w3.org/2000/svg">
<path d="M15.2979 38.7186C11.81 41.7166 7.38194 43.3957 2.79974 43.4579C2.63843 43.4532 2.48166 43.4061 2.34523 43.3214C2.2088 43.2367 2.09755 43.1174 2.02273 42.9754C-1.25091 36.8049 0.890397 26.06 7.31891 16.2281C13.7474 6.39621 22.7598 0.0861686 29.7563 0.536056C29.9189 0.549111 30.0755 0.601172 30.2128 0.6878C30.3501 0.774429 30.464 0.893057 30.5449 1.0336C33.7917 7.20063 31.6657 17.934 25.2372 27.7658C22.5641 31.9454 19.2032 35.6489 15.2979 38.7186ZM3.48399 41.6009C9.67695 41.6601 17.8603 35.6231 23.6486 26.7557C29.4369 17.8883 31.6336 8.00794 29.0951 2.42328C22.9021 2.36403 14.7188 8.40112 8.93048 17.2685C3.14218 26.1359 0.945535 36.0162 3.48399 41.6009Z" fill="#7D806A"/>
<path d="M15.336 38.6419C12.0231 41.4495 7.91447 43.148 3.59879 43.4941C3.44214 43.4925 3.28864 43.4526 3.15183 43.3778C3.01501 43.303 2.89909 43.1956 2.81424 43.0651C2.72404 42.9414 2.66677 42.7966 2.64774 42.6443C2.62872 42.4919 2.64854 42.3369 2.70538 42.1935C11.4697 19.5596 28.8399 1.0426 29.065 0.799747C29.1713 0.693663 29.3001 0.612659 29.4416 0.56278C29.5831 0.5129 29.7338 0.49544 29.8824 0.511688C30.0353 0.530607 30.1813 0.58478 30.3089 0.669924C30.4364 0.755068 30.5421 0.868822 30.6175 1.00223C33.8643 7.16927 31.7383 17.9026 25.3098 27.7345C22.6269 31.9043 19.2538 35.5932 15.336 38.6419ZM5.0434 41.464C11.0395 40.5993 18.329 34.9084 23.6486 26.7557C29.2351 18.2566 31.4099 8.91789 29.4409 3.2578C25.7261 7.37349 12.5929 22.9045 5.0434 41.464Z" fill="#7D806A"/>
<path d="M25.3728 26.8036C25.2097 26.9332 25.0073 27.003 24.7998 27.0011C20.1128 27.4102 15.4723 28.2726 10.9439 29.5762C10.6963 29.6383 10.4351 29.6016 10.2162 29.4739C9.99732 29.3461 9.83814 29.1375 9.77272 28.8926C9.73928 28.7723 9.73049 28.6464 9.74687 28.5221C9.76325 28.3979 9.80446 28.278 9.86807 28.1695C9.93167 28.061 10.0164 27.9661 10.1171 27.8905C10.2179 27.8149 10.3326 27.7601 10.4546 27.7294C15.1408 26.3823 19.9446 25.4999 24.7958 25.0951C24.9964 25.0927 25.192 25.1533 25.355 25.2683C25.5179 25.3833 25.64 25.5469 25.7038 25.7359C25.7676 25.9249 25.77 26.1297 25.7106 26.3213C25.6512 26.513 25.533 26.6817 25.3728 26.8036Z" fill="#7D806A"/>
<path d="M29.8967 14.7226C29.7022 14.8623 29.4664 14.9324 29.2282 14.9212C25.5748 14.9216 21.9571 15.7128 18.6249 17.2401C18.4041 17.3701 18.1415 17.4079 17.8948 17.3451C17.648 17.2823 17.4374 17.124 17.3092 16.9051C17.181 16.6863 17.1457 16.4247 17.2112 16.178C17.2766 15.9313 17.4374 15.7197 17.6581 15.5897C21.3437 13.8676 25.3612 12.9871 29.4153 13.013C29.5403 13.0288 29.6607 13.0691 29.7695 13.1317C29.8783 13.1943 29.9735 13.2778 30.0494 13.3776C30.1253 13.4773 30.1805 13.5912 30.2118 13.7128C30.2431 13.8344 30.2499 13.9611 30.2318 14.0858C30.2032 14.3315 30.0837 14.5586 29.8967 14.7226Z" fill="#7D806A"/>
<path d="M23.6486 26.7557C17.8603 35.6231 9.67695 41.6601 3.48399 41.6009C0.945535 36.0162 3.14218 26.1359 8.93048 17.2685C14.7188 8.40112 22.9021 2.36403 29.0951 2.42328C31.6336 8.00794 29.4369 17.8883 23.6486 26.7557ZM23.6486 26.7557C18.329 34.9084 11.0395 40.5993 5.0434 41.464C12.5929 22.9045 25.7261 7.37349 29.4409 3.2578C31.4099 8.91789 29.2351 18.2566 23.6486 26.7557ZM15.2979 38.7186C11.81 41.7166 7.38194 43.3957 2.79974 43.4579C2.63843 43.4532 2.48166 43.4061 2.34523 43.3214C2.2088 43.2367 2.09755 43.1174 2.02272 42.9754C-1.25091 36.8049 0.890397 26.06 7.31891 16.2281C13.7474 6.39621 22.7598 0.0861697 29.7563 0.536055C29.9189 0.549111 30.0755 0.601171 30.2128 0.6878C30.3501 0.774429 30.464 0.893056 30.5449 1.0336C33.7917 7.20063 31.6657 17.934 25.2372 27.7658C22.5641 31.9454 19.2032 35.6489 15.2979 38.7186ZM15.336 38.6419C12.0231 41.4495 7.91447 43.148 3.59879 43.4941C3.44214 43.4925 3.28864 43.4526 3.15183 43.3778C3.01501 43.303 2.89909 43.1956 2.81424 43.0651C2.72404 42.9414 2.66677 42.7966 2.64774 42.6443C2.62872 42.4919 2.64854 42.3369 2.70537 42.1935C11.4697 19.5596 28.8399 1.0426 29.065 0.799746C29.1713 0.693662 29.3001 0.612659 29.4416 0.56278C29.5831 0.5129 29.7338 0.495439 29.8824 0.511688C30.0353 0.530608 30.1813 0.58478 30.3089 0.669924C30.4364 0.755068 30.5421 0.868823 30.6175 1.00223C33.8643 7.16927 31.7383 17.9026 25.3098 27.7345C22.6269 31.9043 19.2538 35.5932 15.336 38.6419ZM25.3728 26.8036C25.2097 26.9332 25.0073 27.003 24.7998 27.0011C20.1128 27.4102 15.4723 28.2726 10.9439 29.5762C10.6963 29.6383 10.4351 29.6016 10.2162 29.4739C9.99732 29.3461 9.83814 29.1375 9.77272 28.8926C9.73928 28.7723 9.73048 28.6464 9.74687 28.5221C9.76325 28.3979 9.80446 28.278 9.86807 28.1695C9.93167 28.061 10.0164 27.9661 10.1171 27.8905C10.2179 27.8149 10.3326 27.7601 10.4546 27.7294C15.1408 26.3823 19.9446 25.4999 24.7958 25.0951C24.9964 25.0927 25.192 25.1533 25.355 25.2683C25.5179 25.3833 25.64 25.5469 25.7038 25.7359C25.7676 25.9249 25.77 26.1297 25.7106 26.3213C25.6512 26.513 25.533 26.6817 25.3728 26.8036ZM29.8967 14.7226C29.7022 14.8623 29.4664 14.9324 29.2282 14.9212C25.5748 14.9216 21.9571 15.7128 18.6249 17.2401C18.4041 17.3701 18.1415 17.4079 17.8948 17.3451C17.648 17.2823 17.4374 17.124 17.3092 16.9051C17.181 16.6863 17.1457 16.4247 17.2112 16.178C17.2766 15.9313 17.4374 15.7197 17.6581 15.5897C21.3437 13.8676 25.3612 12.9871 29.4153 13.013C29.5403 13.0288 29.6607 13.0691 29.7695 13.1317C29.8783 13.1943 29.9735 13.2778 30.0494 13.3776C30.1253 13.4773 30.1805 13.5912 30.2118 13.7128C30.2431 13.8344 30.2499 13.9611 30.2318 14.0858C30.2032 14.3315 30.0837 14.5586 29.8967 14.7226Z" stroke="#7D806A"/>
</svg>
