<svg width="43" height="41" viewBox="0 0 43 41" fill="none" xmlns="http://www.w3.org/2000/svg">
<path fill-rule="evenodd" clip-rule="evenodd" d="M8.01823 38.1743C7.81398 39.3385 8.9627 40.2498 9.9772 39.7284L21.5 33.8059L33.0228 39.7284C34.0373 40.2498 35.186 39.3385 34.9818 38.1743L32.8035 25.7582L42.0505 16.9462C42.9147 16.1227 42.4674 14.617 41.3097 14.4525L28.4499 12.6257L22.7161 1.26742C22.1996 0.244256 20.8004 0.244256 20.2839 1.26742L14.55 12.6257L1.69035 14.4525C0.53264 14.617 0.085298 16.1227 0.949478 16.9462L10.1965 25.7582L8.01823 38.1743ZM20.894 30.9073L11.218 35.8805L13.0406 25.4916C13.1265 25.0019 12.965 24.5004 12.6134 24.1653L4.98218 16.8931L15.6205 15.3819C16.0603 15.3194 16.4443 15.0385 16.6517 14.6276L21.5 5.02354L26.3483 14.6276C26.5557 15.0385 26.9397 15.3194 27.3795 15.3819L38.0178 16.8931L30.3866 24.1653C30.035 24.5004 29.8735 25.0019 29.9594 25.4916L31.782 35.8805L22.106 30.9073C21.7238 30.7108 21.2762 30.7108 20.894 30.9073Z" fill="#7D806A" stroke="#7D806A"/>
</svg>
