<svg width="34" height="40" viewBox="0 0 34 40" fill="none" xmlns="http://www.w3.org/2000/svg">
<path fill-rule="evenodd" clip-rule="evenodd" d="M17 2.9375C13.7455 2.9375 11.1071 5.66576 11.1071 9.03125V10.25H22.8929V9.03125C22.8929 5.66576 20.2545 2.9375 17 2.9375ZM25.25 10.25V9.03125C25.25 4.31957 21.5564 0.5 17 0.5C12.4437 0.5 8.75 4.31957 8.75 9.03125V10.25H0.5V34.625C0.5 37.3174 2.61066 39.5 5.21429 39.5H28.7857C31.3893 39.5 33.5 37.3174 33.5 34.625V10.25H25.25ZM2.85714 12.6875V34.625C2.85714 35.9712 3.91247 37.0625 5.21429 37.0625H28.7857C30.0875 37.0625 31.1429 35.9712 31.1429 34.625V12.6875H2.85714Z" fill="#7D806A" stroke="#7D806A"/>
</svg>
